# xmcd
#
# Track frame offsets:
#	150
#	12825
#	27825
#	40762
#	53700
#	74137
#	88012
#	98550
#	118125
#	132150
#	142912
#	145537
#	156337
#	165262
#	177262
#	186412
#	204412
#	214912
#	226762
#	237937
#	251175
#	264375
#	277312
#	287137
#	302587
#	313275
#
# Disc length: 4431 seconds
# Revision: 3
# Processed by: cddbd v1.5.2PL0 Copyright (c) Steve Scherf et al.
# Submitted via: dBpowerAMP V12.0
#
DISCID=7c114d1a
DTITLE=Various Artist - Hand Picked: 25 Years Of Bluegrass On Rounder Records
DYEAR=1995
DGENRE=Bluegrass
TTITLE0=J.D. Crowe and the New South - The Old Home Place
TTITLE1=Joe Val - Along About Daybreak
TTITLE2=Del McCoury - High On a Mountain
TTITLE3=Country Cooking - Barrel of Fun
TTITLE4=Hazel Dickens - West Virginia, My Home
TTITLE5=The Bluegrass Cardinals - Blue Eyed Boston Boy
TTITLE6=Ted Lundy - The Old Swinging Bridge
TTITLE7=Dry Branch Fire Squad - Golden Ring
TTITLE8=Don Stover - Things in Life
TTITLE9=Phyllis Boyens - The Last Old Shovel
TTITLE10=Allen Shelton - Sourwood Mountain
TTITLE11=The Allen Brothers - When Someone Wants To Leave
TTITLE12=David Grisman - I Ain't Broke (But I'm Badly Bent)
TTITLE13=Bailey Brothers - Take Me Back To Happy Valley
TTITLE14=Conne and Babe and The Backwoods Boys - Home Is Where the Heart Is
TTITLE15=Boone Creek - Drifting Too Far From The Shore
TTITLE16=Hazel Dickens and Alice Gerrard - Montana Cowboy
TTITLE17=Leon Morris And Buzz Busby - At The End
TTITLE18=Wilma Lee Cooper - You Tried To Ruin My Name
TTITLE19=Butch Robins - I'll Be On That Good Road Someday
TTITLE20=Bill Keith - Crazy Creek
TTITLE21=Verm Williams - When Springtime Comes Again
TTITLE22=Tony Rick - Old Train
TTITLE23=Byron Berline - Ragtime Annie
TTITLE24=Tasty Licks - Blue Days, Black Nights
TTITLE25=The Bluegrass Album Band - The Model Church
EXTD=
EXTT0=
EXTT1=
EXTT2=
EXTT3=
EXTT4=
EXTT5=
EXTT6=
EXTT7=
EXTT8=
EXTT9=
EXTT10=
EXTT11=
EXTT12=
EXTT13=
EXTT14=
EXTT15=
EXTT16=
EXTT17=
EXTT18=
EXTT19=
EXTT20=
EXTT21=
EXTT22=
EXTT23=
EXTT24=
EXTT25=
PLAYORDER=
